<svg width="18" height="21" viewBox="0 0 18 21" fill="none" xmlns="http://www.w3.org/2000/svg">
<path d="M6.29125 16.3364C5.63632 16.3364 3.59584 16.3364 2.08407 16.3364C1.27859 16.3364 0.755692 15.4888 1.11591 14.7683L2.04135 12.9175C2.34226 12.3157 2.49891 11.6528 2.49891 10.9799C2.49891 10.1459 2.49891 8.90711 2.49891 7.66821C2.49891 5.50116 3.58244 1.16705 9.00007 1.16705C14.4177 1.16705 15.5012 5.50116 15.5012 7.66821C15.5012 8.90711 15.5012 10.1459 15.5012 10.9799C15.5012 11.6528 15.6579 12.3157 15.9588 12.9175L16.8842 14.7683C17.2444 15.4888 16.7205 16.3364 15.9151 16.3364H11.7089M6.29125 16.3364C6.29125 18.5035 7.37478 19.587 9.00007 19.587C10.6254 19.587 11.7089 18.5035 11.7089 16.3364M6.29125 16.3364C7.98383 16.3364 11.7089 16.3364 11.7089 16.3364" stroke="#0C1855" stroke-width="1.5" stroke-linejoin="round"/>
</svg>
