<svg width="18" height="23" viewBox="0 0 18 23" fill="none" xmlns="http://www.w3.org/2000/svg">
<path d="M6.29125 18.3364C5.63632 18.3364 3.59584 18.3364 2.08407 18.3364C1.27859 18.3364 0.755692 17.4888 1.11591 16.7683L2.04135 14.9175C2.34226 14.3157 2.49891 13.6528 2.49891 12.9799C2.49891 12.1459 2.49891 10.9071 2.49891 9.66821C2.49891 7.50116 3.58244 3.16705 9.00007 3.16705C14.4177 3.16705 15.5012 7.50116 15.5012 9.66821C15.5012 10.9071 15.5012 12.1459 15.5012 12.9799C15.5012 13.6528 15.6579 14.3157 15.9588 14.9175L16.8842 16.7683C17.2444 17.4888 16.7205 18.3364 15.9151 18.3364H11.7089M6.29125 18.3364C6.29125 20.5035 7.37478 21.587 9.00007 21.587C10.6254 21.587 11.7089 20.5035 11.7089 18.3364M6.29125 18.3364C7.98383 18.3364 11.7089 18.3364 11.7089 18.3364" stroke="#0C1855" stroke-width="1.5" stroke-linejoin="round"/>
<path d="M9 3.16705V1" stroke="#0C1855" stroke-width="1.5" stroke-linecap="round" stroke-linejoin="round"/>
<path d="M17 5.29349C17 6.95034 15.6569 8.29349 14 8.29349C12.3431 8.29349 11 6.95034 11 5.29349C11 3.63663 12.3431 2.29349 14 2.29349C15.6569 2.29349 17 3.63663 17 5.29349Z" fill="#FF0404"/>
</svg>
