<svg width="45" height="45" viewBox="0 0 45 45" fill="none" xmlns="http://www.w3.org/2000/svg">
<g clip-path="url(#clip0_1302_1798)">
<path fill-rule="evenodd" clip-rule="evenodd" d="M30.9375 23.9062H23.9062V30.9375C23.9062 31.7109 23.2777 32.3438 22.5 32.3438C21.7223 32.3438 21.0938 31.7109 21.0938 30.9375V23.9062H14.0625C13.2848 23.9062 12.6562 23.2734 12.6562 22.5C12.6562 21.7266 13.2848 21.0938 14.0625 21.0938H21.0938V14.0625C21.0938 13.2891 21.7223 12.6562 22.5 12.6562C23.2777 12.6562 23.9062 13.2891 23.9062 14.0625V21.0938H30.9375C31.7152 21.0938 32.3438 21.7266 32.3438 22.5C32.3438 23.2734 31.7152 23.9062 30.9375 23.9062ZM22.5 0C10.073 0 0 10.0687 0 22.5C0 34.9313 10.073 45 22.5 45C34.927 45 45 34.9313 45 22.5C45 10.0687 34.927 0 22.5 0Z" fill="#0C1855"/>
</g>
<defs>
<clipPath id="clip0_1302_1798">
<rect width="45" height="45" fill="white"/>
</clipPath>
</defs>
</svg>
