<svg width="101" height="101" viewBox="0 0 101 101" fill="none" xmlns="http://www.w3.org/2000/svg">
<g clip-path="url(#clip0_1210_3259)">
<path d="M97.4459 50.4978C99.0057 48.6814 100.099 46.5118 100.63 44.1773C101.162 41.8428 101.116 39.4139 100.496 37.1013C99.8762 34.7886 98.7016 32.6621 97.074 30.9062C95.4464 29.1503 93.4149 27.818 91.1558 27.025C91.5985 24.6719 91.4603 22.2464 90.7533 19.9588C90.0462 17.6712 88.7917 15.5907 87.0985 13.8978C85.4054 12.2048 83.3247 10.9506 81.0371 10.2439C78.7494 9.53713 76.3239 9.39924 73.9709 9.84218C73.1784 7.58258 71.8464 5.55057 70.0905 3.92255C68.3345 2.29453 66.2078 1.11972 63.8948 0.500128C61.5818 -0.119468 59.1525 -0.165127 56.8179 0.367117C54.4833 0.899361 52.3139 1.99342 50.498 3.55431C48.6816 1.99449 46.512 0.901421 44.1775 0.369912C41.843 -0.161596 39.4141 -0.115488 37.1014 0.504236C34.7888 1.12396 32.6623 2.29858 30.9064 3.9262C29.1505 5.55383 27.8182 7.58529 27.0252 9.84437C24.6722 9.40214 22.247 9.54064 19.9597 10.2479C17.6724 10.9551 15.5922 12.2096 13.8996 13.9027C12.2069 15.5958 10.9529 17.6763 10.2462 19.9638C9.53961 22.2512 9.40173 24.6765 9.84455 27.0293C7.58548 27.8224 5.554 29.1547 3.92638 30.9106C2.29876 32.6665 1.12413 34.793 0.504405 37.1057C-0.115319 39.4183 -0.161434 41.8472 0.370074 44.1817C0.901583 46.5162 1.99468 48.6858 3.55449 50.5022C1.9942 52.3186 0.900772 54.4883 0.369112 56.823C-0.162547 59.1577 -0.116392 61.587 0.503603 63.8998C1.1236 66.2127 2.29868 68.3393 3.92686 70.095C5.55504 71.8508 7.58714 73.1827 9.84675 73.975C9.40354 76.3279 9.54125 78.7534 10.248 81.041C10.9547 83.3285 12.209 85.409 13.9021 87.1019C15.5952 88.7948 17.6759 90.0489 19.9636 90.7553C22.2512 91.4617 24.6767 91.5991 27.0295 91.1556C27.8226 93.4147 29.1549 95.4462 30.9108 97.0738C32.6667 98.7014 34.7932 99.876 37.1058 100.496C39.4185 101.115 41.8474 101.162 44.1819 100.63C46.5164 100.099 48.686 99.0055 50.5024 97.4457C52.3188 99.006 54.4885 100.099 56.8232 100.631C59.1579 101.163 61.5871 101.117 63.9 100.497C66.2128 99.8766 68.3395 98.7015 70.0952 97.0733C71.851 95.4451 73.1829 93.413 73.9752 91.1534C76.3282 91.5965 78.7537 91.4587 81.0413 90.752C83.3289 90.0453 85.4095 88.791 87.1025 87.0979C88.7955 85.4049 90.0498 83.3243 90.7566 81.0367C91.4633 78.7491 91.6011 76.3236 91.158 73.9707C93.4173 73.1778 95.4489 71.8456 97.0766 70.0896C98.7043 68.3336 99.8789 66.2069 100.498 63.8941C101.118 61.5814 101.164 59.1523 100.632 56.8178C100.1 54.4833 99.0063 52.3139 97.4459 50.4978Z" fill="#0C1855"/>
<path d="M41.4351 69.7751L27.4017 55.7505C26.8691 55.217 26.5699 54.494 26.5699 53.7402C26.5699 52.9864 26.8691 52.2635 27.4017 51.73L29.1066 50.0229C29.6401 49.4903 30.363 49.1912 31.1168 49.1912C31.8706 49.1912 32.5937 49.4903 33.1271 50.0229L43.3282 60.2174L67.3526 34.6873C67.8696 34.1388 68.583 33.8178 69.3364 33.7948C70.0898 33.7719 70.8215 34.0488 71.3709 34.5647L73.1218 36.2171C73.6709 36.7342 73.9923 37.4481 74.0153 38.202C74.0383 38.9559 73.761 39.6881 73.2443 40.2376L45.5234 69.7116C45.2624 69.9898 44.9481 70.2127 44.5992 70.3669C44.2504 70.5212 43.8741 70.6038 43.4927 70.6097C43.1113 70.6156 42.7326 70.5448 42.3791 70.4014C42.0256 70.258 41.7046 70.045 41.4351 69.7751Z" fill="white"/>
</g>
<defs>
<clipPath id="clip0_1210_3259">
<rect width="101" height="101" fill="white"/>
</clipPath>
</defs>
</svg>
