<svg width="20" height="20" viewBox="0 0 20 20" fill="none" xmlns="http://www.w3.org/2000/svg">
<path d="M10 9.70001C10.4971 9.70001 10.9 9.29705 10.9 8.80001C10.9 8.30297 10.4971 7.90001 10 7.90001V9.70001ZM1.60001 7.90001C1.10296 7.90001 0.700012 8.30297 0.700012 8.80001C0.700012 9.29705 1.10296 9.70001 1.60001 9.70001V7.90001ZM10 7.90001C9.50297 7.90001 9.10001 8.30297 9.10001 8.80001C9.10001 9.29705 9.50297 9.70001 10 9.70001V7.90001ZM18.4 9.70001C18.8971 9.70001 19.3 9.29705 19.3 8.80001C19.3 8.30297 18.8971 7.90001 18.4 7.90001V9.70001ZM9.10001 8.80001C9.10001 9.29705 9.50297 9.70001 10 9.70001C10.4971 9.70001 10.9 9.29705 10.9 8.80001H9.10001ZM10.9 1.60001C10.9 1.10296 10.4971 0.700012 10 0.700012C9.50297 0.700012 9.10001 1.10296 9.10001 1.60001H10.9ZM2.50001 8.80001C2.50001 8.30297 2.09706 7.90001 1.60001 7.90001C1.10296 7.90001 0.700012 8.30297 0.700012 8.80001H2.50001ZM19.3 8.80001C19.3 8.30297 18.8971 7.90001 18.4 7.90001C17.903 7.90001 17.5 8.30297 17.5 8.80001H19.3ZM0.700012 8.80001C0.700012 9.29705 1.10296 9.70001 1.60001 9.70001C2.09706 9.70001 2.50001 9.29705 2.50001 8.80001H0.700012ZM10 2.50001C10.4971 2.50001 10.9 2.09706 10.9 1.60001C10.9 1.10296 10.4971 0.700012 10 0.700012V2.50001ZM17.5 8.80001C17.5 9.29705 17.903 9.70001 18.4 9.70001C18.8971 9.70001 19.3 9.29705 19.3 8.80001H17.5ZM10 0.700012C9.50297 0.700012 9.10001 1.10296 9.10001 1.60001C9.10001 2.09706 9.50297 2.50001 10 2.50001V0.700012ZM10 7.90001H1.60001V9.70001H10V7.90001ZM10 9.70001H18.4V7.90001H10V9.70001ZM10.9 8.80001V1.60001H9.10001V8.80001H10.9ZM0.700012 8.80001V13.6H2.50001V8.80001H0.700012ZM0.700012 13.6C0.700012 16.7481 3.25199 19.3 6.40001 19.3V17.5C4.2461 17.5 2.50001 15.7539 2.50001 13.6H0.700012ZM6.40001 19.3H13.6V17.5H6.40001V19.3ZM13.6 19.3C16.7481 19.3 19.3 16.7481 19.3 13.6H17.5C17.5 15.7539 15.7539 17.5 13.6 17.5V19.3ZM19.3 13.6V8.80001H17.5V13.6H19.3ZM2.50001 8.80001V6.40001H0.700012V8.80001H2.50001ZM2.50001 6.40001C2.50001 4.2461 4.2461 2.50001 6.40001 2.50001V0.700012C3.25199 0.700012 0.700012 3.25199 0.700012 6.40001H2.50001ZM6.40001 2.50001H10V0.700012H6.40001V2.50001ZM19.3 8.80001V6.40001H17.5V8.80001H19.3ZM19.3 6.40001C19.3 3.25199 16.7481 0.700012 13.6 0.700012V2.50001C15.7539 2.50001 17.5 4.2461 17.5 6.40001H19.3ZM13.6 0.700012H10V2.50001H13.6V0.700012Z" fill="black" fill-opacity="0.5"/>
</svg>
