<svg width="19" height="19" viewBox="0 0 19 19" fill="none" xmlns="http://www.w3.org/2000/svg">
<path d="M18.0982 9.7234V11.0238C18.0982 14.3586 18.0982 16.0261 17.0965 17.0621C16.095 18.0982 14.4829 18.0982 11.2589 18.0982H7.83926C4.6152 18.0982 3.00318 18.0982 2.00158 17.0621C1 16.0261 1 14.3586 1 11.0238V9.7234C1 7.76702 1 6.78882 1.44387 5.97791C1.88774 5.167 2.69866 4.66372 4.32049 3.65717L6.0303 2.596C7.7447 1.532 8.60193 1 9.54908 1C10.4962 1 11.3534 1.532 13.0679 2.596L14.7777 3.65716C16.3995 4.66372 17.2104 5.167 17.6543 5.97791" stroke="black" stroke-width="1.13988" stroke-linecap="round"/>
<path d="M12.1138 14.6785H6.98438" stroke="black" stroke-width="1.13988" stroke-linecap="round"/>
</svg>
