<svg width="26" height="26" viewBox="0 0 26 26" fill="none" xmlns="http://www.w3.org/2000/svg">
<path d="M12.8238 13.4289C15.3791 13.4289 17.4506 11.3575 17.4506 8.80218C17.4506 6.24688 15.3791 4.17542 12.8238 4.17542C10.2685 4.17542 8.19708 6.24688 8.19708 8.80218C8.19708 11.3575 10.2685 13.4289 12.8238 13.4289Z" stroke="black" stroke-opacity="0.5" stroke-width="1.02589" stroke-miterlimit="10" stroke-linecap="round" stroke-linejoin="round"/>
<path d="M9.72637 12.2184C9.71566 12.2184 9.71566 12.2184 9.70496 12.2292" stroke="black" stroke-opacity="0.5" stroke-width="1.02589" stroke-miterlimit="10" stroke-linecap="round" stroke-linejoin="round"/>
<path d="M17.9226 13.1519C20.5796 14.7728 22.3852 17.6351 22.5698 20.9282C22.5801 21.2257 22.3441 21.4719 22.0466 21.4719H3.6011C3.30359 21.4719 3.06764 21.2257 3.0779 20.9282C3.26256 17.6556 5.05786 14.8036 7.68414 13.1827" stroke="black" stroke-opacity="0.5" stroke-width="1.02589" stroke-miterlimit="10" stroke-linecap="round" stroke-linejoin="round"/>
</svg>
