<svg width="27" height="26" viewBox="0 0 27 26" fill="none" xmlns="http://www.w3.org/2000/svg">
<path d="M15.2453 22.1202H3.94345C3.67827 22.1192 3.42401 22.0145 3.23499 21.8286C3.04597 21.6426 2.93719 21.39 2.93188 21.1249V4.92367C2.93188 4.65539 3.03846 4.39809 3.22816 4.20839C3.41787 4.01868 3.67516 3.91211 3.94345 3.91211H20.1284C20.3967 3.91211 20.654 4.01868 20.8437 4.20839C21.0334 4.39809 21.14 4.65539 21.14 4.92367V14.0237" stroke="#858BAA" stroke-width="1.21875"/>
<path d="M2.93188 8.38086H21.14" stroke="#858BAA" stroke-width="1.21875"/>
<path d="M7.03906 3.91211V1.88086" stroke="#858BAA" stroke-width="1.21875"/>
<path d="M16.7728 3.91211V1.88086" stroke="#858BAA" stroke-width="1.21875"/>
<path d="M18.7228 23.5097C21.5116 23.5097 23.7725 21.2488 23.7725 18.46C23.7725 15.6711 21.5116 13.4103 18.7228 13.4103C15.9339 13.4103 13.6731 15.6711 13.6731 18.46C13.6731 21.2488 15.9339 23.5097 18.7228 23.5097Z" stroke="#858BAA" stroke-width="1.21875"/>
<path d="M18.7228 14.9094V18.6144L20.49 19.9713" stroke="#858BAA" stroke-width="1.21875"/>
</svg>
