<svg width="21" height="22" viewBox="0 0 21 22" fill="none" xmlns="http://www.w3.org/2000/svg">
<path d="M19.7163 17.4293C19.7163 19.1783 18.2853 20.6093 16.5363 20.6093H3.8162C2.06718 20.6093 0.636169 19.1783 0.636169 17.4293V4.7092C0.636169 2.96019 2.06718 1.52917 3.8162 1.52917H16.5363C18.2853 1.52917 19.7163 2.96019 19.7163 4.7092V17.4293Z" fill="#F40633"/>
<path d="M7.31403 11.8961C7.18683 11.6417 7.02783 11.4191 6.83703 11.2283C6.64623 11.0375 6.39182 10.8785 6.13742 10.7513C5.85122 10.6241 5.59682 10.5605 5.27882 10.5605C4.67461 10.5605 4.0386 9.95626 4.0386 9.38385C4.0386 8.74785 4.57921 8.23904 5.21521 8.23904C5.85122 8.23904 6.45543 8.74785 6.45543 9.38385H7.47303C7.47303 9.09765 7.40943 8.81145 7.31403 8.55705C7.21863 8.30265 7.05963 8.08004 6.83703 7.85744C6.64623 7.66664 6.39182 7.50764 6.13742 7.38044C5.88302 7.25324 5.50142 7.22144 5.21521 7.22144C4.92901 7.22144 4.64281 7.28504 4.35661 7.38044C4.10221 7.47584 3.8478 7.63484 3.657 7.82564C3.4662 8.01644 3.3072 8.23904 3.18 8.52525C3.0528 8.77965 3.021 9.06585 3.021 9.35205C3.021 9.89266 3.2754 10.4333 3.7206 10.8467C4.16581 11.2601 4.73821 11.5145 5.27882 11.5145C5.88302 11.5145 6.45543 12.0551 6.45543 12.6911C6.45543 13.3271 5.91482 13.8359 5.27882 13.8359C4.64281 13.8359 4.0386 13.2953 4.0386 12.6593H3.0528C3.0528 12.9455 3.1164 13.2317 3.2118 13.4861C3.3072 13.7405 3.4662 13.9631 3.6888 14.1857C3.8796 14.3765 4.13401 14.5355 4.38841 14.6309C4.64281 14.7581 5.02441 14.8217 5.31062 14.8217C5.59682 14.8217 5.88302 14.7581 6.16922 14.6627C6.42362 14.5673 6.67803 14.4083 6.86883 14.1857C7.05963 13.9949 7.21863 13.7723 7.34583 13.4861C7.47303 13.2317 7.50483 12.9455 7.50483 12.6593C7.50483 12.4367 7.44123 12.1823 7.31403 11.8961Z" fill="white"/>
<path d="M12.402 8.55705C12.2748 8.30265 12.1158 8.08004 11.925 7.85744C11.7342 7.63484 11.4798 7.50764 11.2254 7.38044C10.9392 7.25324 10.653 7.22144 10.3668 7.22144C10.0806 7.22144 9.76262 7.28504 9.50822 7.38044C9.25382 7.47584 8.99942 7.63484 8.80861 7.85744C8.61781 8.04824 8.45881 8.27084 8.33161 8.55705C8.20441 8.81145 8.14081 9.09765 8.14081 9.38385V12.6911C8.14081 12.9773 8.20441 13.2635 8.33161 13.5179C8.45881 13.7723 8.61781 13.9949 8.80861 14.2175C8.99942 14.4083 9.25382 14.5673 9.50822 14.6945C9.79442 14.8217 10.0806 14.8535 10.3668 14.8535C10.653 14.8535 10.971 14.7899 11.2254 14.6945C11.4798 14.5991 11.7342 14.4401 11.925 14.2175C12.1158 14.0267 12.2748 13.8041 12.402 13.5179C12.5292 13.2635 12.5928 12.9773 12.5928 12.6911V9.41565C12.5928 9.12945 12.5292 8.84325 12.402 8.55705ZM10.3668 13.8995C9.69902 13.8995 9.15842 13.3907 9.15842 12.7229V9.41565C9.15842 8.77965 9.69902 8.23904 10.3668 8.23904C11.0346 8.23904 11.5752 8.74785 11.5752 9.41565V12.7229C11.5434 13.3589 11.0028 13.8995 10.3668 13.8995Z" fill="white"/>
<path d="M17.4901 11.8961C17.3629 11.6417 17.2039 11.4191 17.0131 11.2283C16.8223 11.0375 16.5678 10.8785 16.3134 10.7513C16.0272 10.6241 15.741 10.5605 15.4548 10.5605C14.8506 10.5605 14.2146 9.95626 14.2146 9.38385C14.2146 8.74785 14.7552 8.23904 15.3912 8.23904C16.0272 8.23904 16.6315 8.74785 16.6315 9.38385H17.6491C17.6491 9.09765 17.5855 8.81145 17.4901 8.55705C17.3947 8.30265 17.2357 8.08004 17.0131 7.85744C16.8223 7.66664 16.5678 7.50764 16.3134 7.38044C16.0272 7.25324 15.6774 7.22144 15.3912 7.22144C15.105 7.22144 14.8188 7.28504 14.5326 7.38044C14.2782 7.47584 14.0238 7.63484 13.833 7.85744C13.6422 8.04824 13.4832 8.27084 13.356 8.55705C13.2288 8.81145 13.197 9.09765 13.197 9.38385C13.197 9.92446 13.4514 10.4651 13.8966 10.8785C14.3418 11.2919 14.9142 11.5463 15.4548 11.5463C16.059 11.5463 16.6315 12.0869 16.6315 12.7229C16.6315 13.3589 16.0908 13.8677 15.4548 13.8677C14.8188 13.8677 14.2146 13.3271 14.2146 12.6911H13.197C13.197 12.9773 13.2606 13.2635 13.356 13.5179C13.4514 13.7723 13.6104 13.9949 13.833 14.2175C14.0238 14.4083 14.2782 14.5673 14.5326 14.6627C14.8188 14.7899 15.1686 14.8535 15.4548 14.8535C15.741 14.8535 16.0272 14.7899 16.3134 14.6945C16.5678 14.5991 16.8223 14.4401 17.0131 14.2493C17.2039 14.0585 17.3629 13.8359 17.4901 13.5497C17.6173 13.2953 17.6491 13.0091 17.6491 12.7229C17.6809 12.4367 17.6173 12.1823 17.4901 11.8961Z" fill="white"/>
</svg>
